<svg width="600" height="500" viewBox="0 0 600 500" xmlns="http://www.w3.org/2000/svg">
  <defs>
    <linearGradient id="woodGrad" x1="0%" y1="0%" x2="100%" y2="0%">
      <stop offset="0%" style="stop-color:#5D4037;stop-opacity:1" />
      <stop offset="50%" style="stop-color:#795548;stop-opacity:1" />
      <stop offset="100%" style="stop-color:#4E342E;stop-opacity:1" />
    </linearGradient>
    <linearGradient id="woodDarkGrad" x1="0%" y1="0%" x2="0%" y2="100%">
       <stop offset="0%" style="stop-color:#4E342E;stop-opacity:1" />
       <stop offset="100%" style="stop-color:#3E2723;stop-opacity:1" />
    </linearGradient>
    <linearGradient id="whiteKeyGrad" x1="0%" y1="0%" x2="0%" y2="100%">
      <stop offset="0%" style="stop-color:#ffffff;stop-opacity:1" />
      <stop offset="100%" style="stop-color:#f0f0f0;stop-opacity:1" />
    </linearGradient>
    <linearGradient id="metalGrad" x1="0%" y1="0%" x2="100%" y2="100%">
       <stop offset="0%" style="stop-color:#9E9E9E;stop-opacity:1" />
       <stop offset="100%" style="stop-color:#616161;stop-opacity:1" />
    </linearGradient>
    <filter id="dropShadow" x="-20%" y="-20%" width="140%" height="140%">
      <feGaussianBlur in="SourceAlpha" stdDeviation="3" result="blur"/>
      <feOffset in="blur" dx="2" dy="4" result="offsetBlur"/>
      <feMerge>
        <feMergeNode in="offsetBlur"/>
        <feMergeNode in="SourceGraphic"/>
      </feMerge>
    </filter>
  </defs>

  <rect x="0" y="350" width="600" height="150" fill="#e0e0e0" />

  <g transform="translate(50, 50)">
    <path d="M0 100 L40 80 L40 350 L0 380 Z" fill="url(#woodDarkGrad)" stroke="#3E2723"/>
    <path d="M40 350 L460 350 L460 250 L40 250 Z" fill="url(#woodGrad)"/>
    <path d="M40 80 L460 80 L500 100 L0 100 Z" fill="#795548" stroke="#5D4037"/>
    <path d="M460 80 L500 100 L500 380 L460 350 Z" fill="url(#woodDarkGrad)"/>

    <g transform="translate(60, 360)">
      <path d="M0 0 L380 0 L400 80 L-20 80 Z" fill="#4E342E" />
      <g stroke="#D7CCC8" stroke-width="8" stroke-linecap="round">
         <line x1="10" y1="5" x2="5" y2="75" /><line x1="25" y1="5" x2="20" y2="75" /><line x1="40" y1="5" x2="35" y2="75" /><line x1="55" y1="5" x2="50" y2="75" />
         <line x1="70" y1="5" x2="65" y2="75" /><line x1="85" y1="5" x2="80" y2="75" /><line x1="100" y1="5" x2="95" y2="75" /><line x1="115" y1="5" x2="110" y2="75" />
         <line x1="130" y1="5" x2="125" y2="75" /><line x1="145" y1="5" x2="140" y2="75" /><line x1="160" y1="5" x2="155" y2="75" /><line x1="175" y1="5" x2="170" y2="75" />
         <line x1="190" y1="5" x2="185" y2="75" /><line x1="205" y1="5" x2="200" y2="75" /><line x1="220" y1="5" x2="215" y2="75" /><line x1="235" y1="5" x2="230" y2="75" />
         <line x1="250" y1="5" x2="245" y2="75" /><line x1="265" y1="5" x2="260" y2="75" /><line x1="280" y1="5" x2="275" y2="75" /><line x1="295" y1="5" x2="290" y2="75" />
         <line x1="310" y1="5" x2="305" y2="75" /><line x1="325" y1="5" x2="320" y2="75" /><line x1="340" y1="5" x2="335" y2="75" /><line x1="355" y1="5" x2="350" y2="75" />
      </g>
      <g stroke="#212121" stroke-width="7" stroke-linecap="round">
         <line x1="17" y1="5" x2="14" y2="45" /><line x1="32" y1="5" x2="29" y2="45" />
         <line x1="62" y1="5" x2="59" y2="45" /><line x1="77" y1="5" x2="74" y2="45" /><line x1="92" y1="5" x2="89" y2="45" />
         <line x1="122" y1="5" x2="119" y2="45" /><line x1="137" y1="5" x2="134" y2="45" />
         <line x1="167" y1="5" x2="164" y2="45" /><line x1="182" y1="5" x2="179" y2="45" /><line x1="197" y1="5" x2="194" y2="45" />
         <line x1="227" y1="5" x2="224" y2="45" /><line x1="242" y1="5" x2="239" y2="45" />
         <line x1="272" y1="5" x2="269" y2="45" /><line x1="287" y1="5" x2="284" y2="45" /><line x1="302" y1="5" x2="299" y2="45" />
         <line x1="332" y1="5" x2="329" y2="45" />
      </g>
       <path d="M380 10 L420 20 L410 70 L370 60 Z" fill="url(#metalGrad)" stroke="#424242" filter="url(#dropShadow)"/>
    </g>

    <g transform="translate(40, 150)" filter="url(#dropShadow)">
        <rect x="0" y="0" width="420" height="100" fill="#3E2723" />
        
        <g transform="translate(10, 10)">
           <rect x="0" y="0" width="400" height="35" fill="url(#whiteKeyGrad)" stroke="#ccc"/>
           <g stroke="#ccc" stroke-width="1">
               <line x1="14" y1="0" x2="14" y2="35"/><line x1="28" y1="0" x2="28" y2="35"/><line x1="42" y1="0" x2="42" y2="35"/><line x1="56" y1="0" x2="56" y2="35"/>
               <line x1="70" y1="0" x2="70" y2="35"/><line x1="84" y1="0" x2="84" y2="35"/><line x1="98" y1="0" x2="98" y2="35"/><line x1="112" y1="0" x2="112" y2="35"/>
               <line x1="126" y1="0" x2="126" y2="35"/><line x1="140" y1="0" x2="140" y2="35"/><line x1="154" y1="0" x2="154" y2="35"/><line x1="168" y1="0" x2="168" y2="35"/>
               <line x1="182" y1="0" x2="182" y2="35"/><line x1="196" y1="0" x2="196" y2="35"/><line x1="210" y1="0" x2="210" y2="35"/><line x1="224" y1="0" x2="224" y2="35"/>
               <line x1="238" y1="0" x2="238" y2="35"/><line x1="252" y1="0" x2="252" y2="35"/><line x1="266" y1="0" x2="266" y2="35"/><line x1="280" y1="0" x2="280" y2="35"/>
               <line x1="294" y1="0" x2="294" y2="35"/><line x1="308" y1="0" x2="308" y2="35"/><line x1="322" y1="0" x2="322" y2="35"/><line x1="336" y1="0" x2="336" y2="35"/>
               <line x1="350" y1="0" x2="350" y2="35"/><line x1="364" y1="0" x2="364" y2="35"/><line x1="378" y1="0" x2="378" y2="35"/><line x1="392" y1="0" x2="392" y2="35"/>
           </g>
           <g fill="#212121" stroke="#000" stroke-width="0.5">
               <rect x="10" y="0" width="8" height="22" /><rect x="24" y="0" width="8" height="22" />
               <rect x="52" y="0" width="8" height="22" /><rect x="66" y="0" width="8" height="22" /><rect x="80" y="0" width="8" height="22" />
               <rect x="108" y="0" width="8" height="22" /><rect x="122" y="0" width="8" height="22" />
               <rect x="150" y="0" width="8" height="22" /><rect x="164" y="0" width="8" height="22" /><rect x="178" y="0" width="8" height="22" />
               <rect x="206" y="0" width="8" height="22" /><rect x="220" y="0" width="8" height="22" />
               <rect x="248" y="0" width="8" height="22" /><rect x="262" y="0" width="8" height="22" /><rect x="276" y="0" width="8" height="22" />
               <rect x="304" y="0" width="8" height="22" /><rect x="318" y="0" width="8" height="22" />
               <rect x="346" y="0" width="8" height="22" /><rect x="360" y="0" width="8" height="22" /><rect x="374" y="0" width="8" height="22" />
           </g>
        </g>

        <g transform="translate(10, 50)">
           <rect x="0" y="0" width="400" height="35" fill="url(#whiteKeyGrad)" stroke="#ccc"/>
           <rect x="0" y="0" width="400" height="5" fill="#000" opacity="0.2"/> <g stroke="#ccc" stroke-width="1">
               <line x1="14" y1="0" x2="14" y2="35"/><line x1="28" y1="0" x2="28" y2="35"/><line x1="42" y1="0" x2="42" y2="35"/><line x1="56" y1="0" x2="56" y2="35"/>
               <line x1="70" y1="0" x2="70" y2="35"/><line x1="84" y1="0" x2="84" y2="35"/><line x1="98" y1="0" x2="98" y2="35"/><line x1="112" y1="0" x2="112" y2="35"/>
               <line x1="126" y1="0" x2="126" y2="35"/><line x1="140" y1="0" x2="140" y2="35"/><line x1="154" y1="0" x2="154" y2="35"/><line x1="168" y1="0" x2="168" y2="35"/>
               <line x1="182" y1="0" x2="182" y2="35"/><line x1="196" y1="0" x2="196" y2="35"/><line x1="210" y1="0" x2="210" y2="35"/><line x1="224" y1="0" x2="224" y2="35"/>
               <line x1="238" y1="0" x2="238" y2="35"/><line x1="252" y1="0" x2="252" y2="35"/><line x1="266" y1="0" x2="266" y2="35"/><line x1="280" y1="0" x2="280" y2="35"/>
               <line x1="294" y1="0" x2="294" y2="35"/><line x1="308" y1="0" x2="308" y2="35"/><line x1="322" y1="0" x2="322" y2="35"/><line x1="336" y1="0" x2="336" y2="35"/>
               <line x1="350" y1="0" x2="350" y2="35"/><line x1="364" y1="0" x2="364" y2="35"/><line x1="378" y1="0" x2="378" y2="35"/><line x1="392" y1="0" x2="392" y2="35"/>
           </g>
           <g fill="#212121" stroke="#000" stroke-width="0.5">
               <rect x="10" y="0" width="8" height="22" /><rect x="24" y="0" width="8" height="22" />
               <rect x="52" y="0" width="8" height="22" /><rect x="66" y="0" width="8" height="22" /><rect x="80" y="0" width="8" height="22" />
               <rect x="108" y="0" width="8" height="22" /><rect x="122" y="0" width="8" height="22" />
               <rect x="150" y="0" width="8" height="22" /><rect x="164" y="0" width="8" height="22" /><rect x="178" y="0" width="8" height="22" />
               <rect x="206" y="0" width="8" height="22" /><rect x="220" y="0" width="8" height="22" />
               <rect x="248" y="0" width="8" height="22" /><rect x="262" y="0" width="8" height="22" /><rect x="276" y="0" width="8" height="22" />
               <rect x="304" y="0" width="8" height="22" /><rect x="318" y="0" width="8" height="22" />
               <rect x="346" y="0" width="8" height="22" /><rect x="360" y="0" width="8" height="22" /><rect x="374" y="0" width="8" height="22" />
           </g>
        </g>
    </g>

    <g transform="translate(40, 100)">
        <rect x="0" y="0" width="420" height="50" fill="url(#metalGrad)" stroke="#424242"/>
        <g transform="translate(20, 10)">
            <rect x="0" y="0" width="150" height="30" fill="#212121"/>
            <rect x="5" y="5" width="6" height="25" fill="#8D6E63"/> <circle cx="8" cy="5" r="3" fill="#D7CCC8" stroke="#5D4037"/>
            <rect x="15" y="15" width="6" height="15" fill="#8D6E63"/> <circle cx="18" cy="15" r="3" fill="#D7CCC8" stroke="#5D4037"/>
            <rect x="25" y="0" width="6" height="30" fill="#8D6E63"/> <circle cx="28" cy="0" r="3" fill="#3E2723" stroke="#000"/>
            <rect x="35" y="10" width="6" height="20" fill="#8D6E63"/> <circle cx="38" cy="10" r="3" fill="#ffffff" stroke="#ccc"/>
            <rect x="45" y="20" width="6" height="10" fill="#8D6E63"/> <circle cx="48" cy="20" r="3" fill="#D7CCC8" stroke="#5D4037"/>
            <rect x="55" y="5" width="6" height="25" fill="#8D6E63"/> <circle cx="58" cy="5" r="3" fill="#3E2723" stroke="#000"/>
        </g>
        <g transform="translate(200, 10)">
            <rect x="0" y="5" width="25" height="15" rx="3" fill="#ddd" stroke="#999" />
            <rect x="35" y="5" width="25" height="15" rx="3" fill="#ddd" stroke="#999" />
            <circle cx="12.5" cy="25" r="3" fill="#F44336" /> 
            <circle cx="47.5" cy="25" r="3" fill="#4CAF50" />
            <circle cx="100" cy="15" r="12" fill="#333" stroke="#111" />
            <rect x="98" y="5" width="4" height="10" fill="#fff" />
        </g>
    </g>

    <g transform="translate(150, 30)">
      <path d="M0 50 L20 0 L180 0 L200 50" fill="none" stroke="#8D6E63" stroke-width="4" />
      <rect x="20" y="5" width="160" height="45" fill="rgba(255,255,255,0.7)" stroke="#ccc"/>
    </g>
  </g>
</svg>